#!OML:ASF G:\JayActor3\Patient Classification 1\Patient 1\Session 2\male.ASF
:FULLY-SPECIFIED
:DEGREES
1984
root -29.4461 17.4678 -4.22038 1556.23 -265.618 -970.372
lowerback 3.4967 -2.75103 -3.23062
upperback -0.428487 -3.8251 -2.006
thorax -2.32474 -1.86517 -0.049672
lowerneck -10.7101 -0.442252 -4.30959
upperneck -11.5609 1.18301 12.0854
head -1.73042 0.852264 4.41191
rclavicle 5.38706e-014 3.02153e-014
rhumerus -79.5207 25.8138 -95.8484
rradius 50.5285
rwrist -11.178
rhand -18.4888 3.81402
rfingers 7.12502
rthumb 7.79859 -26.0222
lclavicle 5.38706e-014 3.02153e-014
lhumerus -25.7383 -21.3571 85.4579
lradius 97.0574
lwrist 24.9329
lhand -15.7602 13.2783
lfingers 7.12502
lthumb 10.4315 42.9995
rfemur -34.5215 -11.12 26.6944
rtibia 88.686
rfoot -12.0393 -5.27999
rtoes -7.53475
lfemur -2.59242 3.57756 -14.4183
ltibia 21.0151
lfoot -10.1862 8.00003
ltoes -16.45
1985
root -29.2635 17.4624 -4.22928 1557.9 -266.035 -968.528
lowerback 3.60185 -2.82861 -3.65435
upperback -0.303471 -3.94479 -2.07456
thorax -2.22902 -1.9204 0.12215
lowerneck -10.8379 -0.314731 -4.133
upperneck -11.256 1.30896 12.1359
head -1.63037 0.916696 4.39904
rclavicle -3.61788e-014 9.54166e-015
rhumerus -80.4364 26.0051 -95.2233
rradius 51.4212
rwrist -11.4782
rhand -18.4202 3.81416
rfingers 7.12502
rthumb 7.86481 -26.0195
lclavicle -3.61788e-014 9.54166e-015
lhumerus -24.6962 -22.1737 84.5869
lradius 99.8192
lwrist 24.9144
lhand -15.2229 13.0736
lfingers 7.12502
lthumb 10.9498 42.768
rfemur -36.2114 -10.7 26.8808
rtibia 88.5362
rfoot -12.8417 -5.08613
rtoes -7.47486
lfemur -1.48392 3.37074 -14.8986
ltibia 20.4449
lfoot -10.2196 8.17152
ltoes -17.1161
1986
root -29.0816 17.4461 -4.24199 1561.12 -266.435 -965.127
lowerback 3.74894 -2.87872 -4.0559
upperback -0.17569 -4.0294 -2.15381
thorax -2.15589 -1.95859 0.27099
lowerneck -10.9387 -0.184678 -3.95281
upperneck -10.9244 1.43158 12.1792
head -1.52632 0.979081 4.38334
rclavicle 5.38706e-014 4.92986e-014
rhumerus -81.2394 26.2264 -94.6225
rradius 52.2323
rwrist -11.8039
rhand -18.2644 3.79709
rfingers 7.12502
rthumb 8.01516 -26.0309
lclavicle 5.38706e-014 4.92986e-014
lhumerus -23.6323 -22.859 83.6646
lradius 102.555
lwrist 24.8583
lhand -14.5949 12.8492
lfingers 7.12502
lthumb 11.5554 42.5106
rfemur -37.8257 -10.1653 26.9726
rtibia 88.0715
rfoot -13.6257 -4.91847
rtoes -7.28126
lfemur -0.375014 3.09453 -15.4443
ltibia 19.8851
lfoot -10.3444 8.33693
ltoes -17.7281
1987
root -28.9001 17.42 -4.25802 1566.09 -266.801 -959.965
lowerback 3.94354 -2.90552 -4.43196
upperback -0.0457866 -4.08524 -2.23686
thorax -2.10927 -1.98265 0.402917
lowerneck -11.025 -0.0529605 -3.77388
upperneck -10.5577 1.5496 12.215
head -1.41379 1.03964 4.36557
rclavicle 2.50469e-014 -4.77083e-015
rhumerus -81.9137 26.4643 -94.0207
rradius 52.9618
rwrist -12.1362
rhand -18.0284 3.73906
rfingers 7.12502
rthumb 8.24296 -26.0801
lclavicle 2.50469e-014 -4.77083e-015
lhumerus -22.5408 -23.4218 82.7127
lradius 105.245
lwrist 24.7983
lhand -13.9001 12.6151
lfingers 7.12502
lthumb 12.2254 42.2378
rfemur -39.3524 -9.52758 26.9717
rtibia 87.2871
rfoot -14.4026 -4.77363
rtoes -7.04085
lfemur 0.730566 2.75039 -16.0499
ltibia 19.3147
lfoot -10.5501 8.55951
ltoes -18.4454
1988
root -28.719 17.3841 -4.27647 1572.86 -267.105 -952.985
lowerback 4.18085 -2.91173 -4.77506
upperback 0.0913144 -4.11554 -2.31508
thorax -2.08147 -1.99438 0.522458
lowerneck -11.1008 0.0768172 -3.60316
upperneck -10.1571 1.65925 12.244
head -1.29214 1.09693 4.34719
rclavicle 5.06901e-014 6.36111e-015
rhumerus -82.4404 26.7062 -93.3953
rradius 53.6039
rwrist -12.4441
rhand -17.7628 3.70145
rfingers 7.12502
rthumb 8.49924 -26.1075
lclavicle 5.06901e-014 6.36111e-015
lhumerus -21.439 -23.874 81.7519
lradius 107.878
lwrist 24.7504
lhand -13.1845 12.3715
lfingers 7.12502
lthumb 12.9153 41.9519
rfemur -40.7746 -8.79396 26.8913
rtibia 86.1863
rfoot -15.1715 -4.64059
rtoes -6.72453
lfemur 1.8473 2.33538 -16.6944
ltibia 18.7063
lfoot -10.8572 8.8675
ltoes -19.0203
1989
root -28.5377 17.339 -4.2964 1581.44 -267.321 -944.2
lowerback 4.44735 -2.89869 -5.08983
upperback 0.239894 -4.12138 -2.38343
thorax -2.06008 -1.99449 0.636453
lowerneck -11.1808 0.204332 -3.43914
upperneck -9.72357 1.76035 12.2605
head -1.15943 1.15148 4.32637
rclavicle 2.48481e-014 -4.77083e-015
rhumerus -82.8082 26.9392 -92.7286
rradius 54.172
rwrist -12.6937
rhand -17.519 3.67344
rfingers 7.12502
rthumb 8.73451 -26.1258
lclavicle 2.48481e-014 -4.77083e-015
lhumerus -20.3372 -24.2382 80.8022
lradius 110.444
lwrist 24.7589
lhand -12.544 12.1278
lfingers 7.12502
lthumb 13.5327 41.6681
rfemur -42.0829 -7.9717 26.7338
rtibia 84.7742
rfoot -15.9084 -4.5322
rtoes -6.4741
lfemur 2.97914 1.86284 -17.3718
ltibia 18.0414
lfoot -11.2431 9.33934
ltoes -19.4203
1990
root -28.3558 17.2855 -4.31704 1591.15 -267.427 -934.279
lowerback 4.73509 -2.86667 -5.36956
upperback 0.397961 -4.10239 -2.43714
thorax -2.04312 -1.98293 0.745596
lowerneck -11.2568 0.32604 -3.27647
upperneck -9.26858 1.84866 12.2572
head -1.01999 1.20048 4.29989
rclavicle -2.80286e-014 1.90833e-014
rhumerus -83.0203 27.1426 -92.0059
rradius 54.6772
rwrist -12.8516
rhand -17.3177 3.66631
rfingers 7.12502
rthumb 8.92883 -26.1248
lclavicle -2.80286e-014 1.90833e-014
lhumerus -19.2726 -24.5421 79.8881
lradius 112.934
lwrist 24.833
lhand -12.0552 11.9026
lfingers 7.12502
lthumb 14.0038 41.4109
rfemur -43.2726 -7.0677 26.5107
rtibia 83.061
rfoot -16.5821 -4.46454
rtoes -6.31176
lfemur 4.13232 1.36973 -18.0621
ltibia 17.3073
lfoot -11.6213 10.0195
ltoes -19.4823
1991
root -28.1731 17.2239 -4.33802 1601 -267.416 -924.223
lowerback 5.03128 -2.81812 -5.6138
upperback 0.570325 -4.06041 -2.47395
thorax -2.01845 -1.96095 0.851035
lowerneck -11.3159 0.444464 -3.12073
upperneck -8.72319 1.895 11.9156
head -0.999189 1.24436 4.5947
rclavicle 1.92821e-014 6.36111e-015
rhumerus -83.0742 27.3059 -91.2146
rradius 55.1414
rwrist -12.9041
rhand -17.2028 3.68714
rfingers 7.12502
rthumb 9.03961 -26.0992
lclavicle 1.92821e-014 6.36111e-015
lhumerus -18.2755 -24.8105 79.022
lradius 115.346
lwrist 24.9604
lhand -11.7761 11.6822
lfingers 7.12502
lthumb 14.2727 41.1717
rfemur -44.345 -6.09407 26.222
rtibia 81.0644
rfoot -17.1674 -4.42486
rtoes -6.17096
lfemur 5.32363 0.937501 -18.7492
ltibia 16.5018
lfoot -11.9434 10.7825
ltoes -19.2284
1992
root -27.9903 17.1552 -4.35932 1609.92 -267.31 -915.093
lowerback 5.32917 -2.75937 -5.82166
upperback 0.758798 -4.00286 -2.49249
thorax -1.98013 -1.93245 0.953591
lowerneck -11.3535 0.561589 -2.9632
upperneck -8.32435 1.98314 11.8861
head -0.865813 1.29017 4.55414
rclavicle -2.74323e-014 -3.18055e-015
rhumerus -82.9714 27.4201 -90.3461
rradius 55.5854
rwrist -12.8673
rhand -17.1985 3.7606
rfingers 7.12502
rthumb 9.04381 -26.0255
lclavicle -2.74323e-014 -3.18055e-015
lhumerus -17.3687 -25.0643 78.2118
lradius 117.676
lwrist 25.1245
lhand -11.7012 11.4705
lfingers 7.12502
lthumb 14.3449 40.9549
rfemur -45.3038 -5.0763 25.869
rtibia 78.8021
rfoot -17.6376 -4.40887
rtoes -6.06119
lfemur 6.57447 0.682838 -19.4076
ltibia 15.6246
lfoot -12.1535 11.4838
ltoes -18.8936
1993
root -27.8073 17.0805 -4.38114 1617.34 -267.135 -907.483
lowerback 5.61683 -2.69494 -5.99044
upperback 0.9705 -3.93377 -2.48918
thorax -1.9139 -1.89996 1.05475
lowerneck -11.3735 0.678787 -2.79923
upperneck -7.97708 2.07624 11.8338
head -0.752968 1.33731 4.5046
rclavicle -8.3092e-014 -6.20208e-014
rhumerus -82.7042 27.4782 -89.388
rradius 56.0297
rwrist -12.7843
rhand -17.2941 3.86693
rfingers 7.12502
rthumb 8.95154 -25.9232
lclavicle -8.3092e-014 -6.20208e-014
lhumerus -16.5645 -25.315 77.4658
lradius 119.913
lwrist 25.2853
lhand -11.7844 11.2547
lfingers 7.12502
lthumb 14.2648 40.7447
rfemur -46.1563 -4.03212 25.4554
rtibia 76.2953
rfoot -17.9668 -4.40928
rtoes -5.93363
lfemur 7.90907 0.666846 -20.0179
ltibia 14.668
lfoot -12.2641 12.0245
ltoes -18.6631
1994
root -27.6241 17.0006 -4.4036 1623.28 -266.919 -901.37
lowerback 5.88418 -2.62892 -6.12472
upperback 1.20761 -3.85741 -2.46374
thorax -1.81131 -1.86581 1.15698
lowerneck -11.361 0.795941 -2.63551
upperneck -7.70389 2.17824 11.7666
head -0.671024 1.38691 4.44993
rclavicle 2.52457e-014 1.59028e-014
rhumerus -82.2764 27.4697 -88.3378
rradius 56.4918
rwrist -12.7072
rhand -17.4919 4.01728
rfingers 7.12502
rthumb 8.76072 -25.7809
lclavicle 2.52457e-014 1.59028e-014
lhumerus -15.8754 -25.5743 76.7933
lradius 122.042
lwrist 25.4299
lhand -11.9409 11.0222
lfingers 7.12502
lthumb 14.114 40.5228
rfemur -46.9079 -2.98472 24.979
rtibia 73.5668
rfoot -18.124 -4.41829
rtoes -5.76859
lfemur 9.35672 0.889702 -20.5757
ltibia 13.6018
lfoot -12.3193 12.3558
ltoes -18.751
1995
root -27.4403 16.9162 -4.42667 1628.11 -266.681 -896.385
lowerback 6.12211 -2.56375 -6.2383
upperback 1.46839 -3.77678 -2.41777
thorax -1.66811 -1.8315 1.26607
lowerneck -11.3171 0.911985 -2.47101
upperneck -7.49913 2.28698 11.6848
head -0.617497 1.43783 4.3898
rclavicle 9.93923e-015 4.45278e-014
rhumerus -81.6944 27.381 -87.1973
rradius 56.9834
rwrist -12.6792
rhand -17.736 4.13911
rfingers 7.12502
rthumb 8.52512 -25.6688
lclavicle 9.93923e-015 4.45278e-014
lhumerus -15.3086 -25.8531 76.2076
lradius 124.042
lwrist 25.554
lhand -12.0734 10.812
lfingers 7.12502
lthumb 13.9863 40.3215
rfemur -47.5636 -1.94577 24.4278
rtibia 70.6446
rfoot -18.1041 -4.39925
rtoes -5.40118
lfemur 10.9413 1.26962 -21.1031
ltibia 12.3671
lfoot -12.383 12.5557
ltoes -19.1112
1996
root -27.2551 16.8286 -4.45001 1632.07 -266.439 -892.276
lowerback 6.32336 -2.50248 -6.33916
upperback 1.75423 -3.69547 -2.3492
thorax -1.47799 -1.79899 1.38847
lowerneck -11.2544 1.02062 -2.31198
upperneck -7.34785 2.39308 11.5945
head -0.584463 1.48614 4.32741
rclavicle -8.0309e-014 -4.13472e-014
rhumerus -80.9593 27.204 -85.9708
rradius 57.503
rwrist -12.7276
rhand -17.986 4.24834
rfingers 7.12502
rthumb 8.28386 -25.5692
lclavicle -8.0309e-014 -4.13472e-014
lhumerus -14.8709 -26.1546 75.7229
lradius 125.876
lwrist 25.6706
lhand -12.0999 10.6019
lfingers 7.12502
lthumb 13.9607 40.1132
rfemur -48.1267 -0.93353 23.8088
rtibia 67.5535
rfoot -17.9007 -4.36758
rtoes -5.00455
lfemur 12.705 1.71032 -21.6117
ltibia 10.8588
lfoot -12.4574 12.7351
ltoes -19.578
1997
root -27.068 16.7386 -4.47322 1635.61 -266.198 -888.62
lowerback 6.48181 -2.44488 -6.44495
upperback 2.05579 -3.61424 -2.26311
thorax -1.24643 -1.76841 1.52883
lowerneck -11.1739 1.1171 -2.15857
upperneck -7.23172 2.48799 11.5017
head -0.565036 1.52787 4.2647
rclavicle 4.03533e-014 2.8625e-014
rhumerus -80.0921 26.9255 -84.6788
rradius 58.0544
rwrist -12.8529
rhand -18.2153 4.30968
rfingers 7.12502
rthumb 8.06258 -25.5165
lclavicle 4.03533e-014 2.8625e-014
lhumerus -14.5801 -26.4951 75.3615
lradius 127.504
lwrist 25.7945
lhand -11.9556 10.402
lfingers 7.12502
lthumb 14.0998 39.9036
rfemur -48.6096 0.0394195 23.1139
rtibia 64.3234
rfoot -17.5317 -4.29165
rtoes -4.61185
lfemur 14.7235 2.51118 -22.0263
ltibia 8.89054
lfoot -12.3616 12.6467
ltoes -20.1039
1998
root -26.8783 16.6474 -4.49596 1639.02 -265.966 -885.107
lowerback 6.60317 -2.39012 -6.57098
upperback 2.35983 -3.53437 -2.16336
thorax -0.98959 -1.73988 1.69256
lowerneck -11.0643 1.1985 -2.0065
upperneck -7.13295 2.56503 11.4082
head -0.554709 1.55941 4.20113
rclavicle -7.35503e-015 -6.36111e-015
rhumerus -79.1258 26.5358 -83.348
rradius 58.6301
rwrist -13.0292
rhand -18.3996 4.32358
rfingers 7.12502
rthumb 7.88469 -25.5094
lclavicle -7.35503e-015 -6.36111e-015
lhumerus -14.4553 -26.8914 75.1505
lradius 128.871
lwrist 25.9447
lhand -11.6406 10.2411
lfingers 7.12502
lthumb 14.4033 39.7213
rfemur -49.0166 0.967501 22.3358
rtibia 60.9851
rfoot -17.0477 -4.13196
rtoes -4.24129
lfemur 17.2262 3.28558 -22.411
ltibia 6.00723
lfoot -11.9157 12.7181
ltoes -20.4753
